<?xml version="1.0" encoding="UTF-8" standalone="no"?>
<!-- Created with Inkscape (http://www.inkscape.org/) -->

<svg
   xmlns:dc="http://purl.org/dc/elements/1.1/"
   xmlns:cc="http://creativecommons.org/ns#"
   xmlns:rdf="http://www.w3.org/1999/02/22-rdf-syntax-ns#"
   xmlns:svg="http://www.w3.org/2000/svg"
   xmlns="http://www.w3.org/2000/svg"
   xmlns:sodipodi="http://sodipodi.sourceforge.net/DTD/sodipodi-0.dtd"
   xmlns:inkscape="http://www.inkscape.org/namespaces/inkscape"
   version="1.1"
   width="1020"
   height="359.9346"
   id="svg3096"
   style="enable-background:new"
   inkscape:version="0.48.4 r9939"
   sodipodi:docname="arbol-logo.svg">
  <sodipodi:namedview
     pagecolor="#ffffff"
     bordercolor="#666666"
     borderopacity="1"
     objecttolerance="10"
     gridtolerance="10"
     guidetolerance="10"
     inkscape:pageopacity="0"
     inkscape:pageshadow="2"
     inkscape:window-width="1364"
     inkscape:window-height="747"
     id="namedview4123"
     showgrid="false"
     units="px"
     showguides="true"
     inkscape:guide-bbox="true"
     inkscape:zoom="0.21238202"
     inkscape:cx="509.99999"
     inkscape:cy="-699.08031"
     inkscape:window-x="0"
     inkscape:window-y="19"
     inkscape:window-maximized="0"
     inkscape:current-layer="svg3096"
     fit-margin-top="10"
     fit-margin-left="10"
     fit-margin-right="10"
     fit-margin-bottom="10" />
  <title
     id="title3641">árbol logo</title>
  <defs
     id="defs3">
    <filter
       id="filter3883"
       color-interpolation-filters="sRGB">
      <feBlend
         id="feBlend3885"
         mode="multiply"
         in2="BackgroundImage" />
    </filter>
    <filter
       id="filter3883-9-4"
       color-interpolation-filters="sRGB">
      <feBlend
         id="feBlend3885-9-4"
         mode="multiply"
         in2="BackgroundImage" />
    </filter>
    <filter
       id="filter3883-8-7-7"
       color-interpolation-filters="sRGB">
      <feBlend
         id="feBlend3885-68-4-3"
         mode="multiply"
         in2="BackgroundImage" />
    </filter>
    <filter
       id="filter3883-1-2-3"
       color-interpolation-filters="sRGB">
      <feBlend
         id="feBlend3885-7-0-6"
         mode="multiply"
         in2="BackgroundImage" />
    </filter>
  </defs>
  <metadata
     id="metadata3100">
    <rdf:RDF>
      <cc:Work
         rdf:about="">
        <dc:format>image/svg+xml</dc:format>
        <dc:type
           rdf:resource="http://purl.org/dc/dcmitype/StillImage" />
        <dc:title>árbol logo</dc:title>
        <dc:date>2014-02-02</dc:date>
        <dc:creator>
          <cc:Agent>
            <dc:title>hellekin</dc:title>
          </cc:Agent>
        </dc:creator>
        <dc:rights>
          <cc:Agent>
            <dc:title>fundación árbol</dc:title>
          </cc:Agent>
        </dc:rights>
        <dc:publisher>
          <cc:Agent>
            <dc:title>colectivo transdisciplinario foike</dc:title>
          </cc:Agent>
        </dc:publisher>
        <dc:identifier>http://foike.org/img/arbol-logo.svg</dc:identifier>
        <dc:source>http://foike.org/img/arbol-logo.svg</dc:source>
        <dc:relation>http://lab.foike.org/</dc:relation>
        <dc:language>es-AR</dc:language>
        <dc:subject>
          <rdf:Bag>
            <rdf:li>logo</rdf:li>
            <rdf:li>tree</rdf:li>
            <rdf:li>árbol</rdf:li>
            <rdf:li>hacklab</rdf:li>
          </rdf:Bag>
        </dc:subject>
        <dc:coverage>Kosmos</dc:coverage>
        <dc:description>Logotipo del hacklab árbol</dc:description>
        <cc:license
           rdf:resource="http://artlibre.org/licence/lal" />
      </cc:Work>
      <cc:License
         rdf:about="http://artlibre.org/licence/lal">
        <cc:permits
           rdf:resource="http://creativecommons.org/ns#Reproduction" />
        <cc:permits
           rdf:resource="http://creativecommons.org/ns#Distribution" />
        <cc:permits
           rdf:resource="http://creativecommons.org/ns#DerivativeWorks" />
        <cc:requires
           rdf:resource="http://creativecommons.org/ns#ShareAlike" />
        <cc:requires
           rdf:resource="http://creativecommons.org/ns#Notice" />
        <cc:requires
           rdf:resource="http://creativecommons.org/ns#Attribution" />
      </cc:License>
    </rdf:RDF>
  </metadata>
  <g
     style="display:none;filter:url(#filter3883)"
     id="layer1"
     transform="translate(-233.8475,619.24437)">
    <text
       sodipodi:linespacing="125%"
       style="font-size:24px;font-style:normal;font-variant:normal;font-weight:normal;font-stretch:normal;text-align:start;line-height:125%;letter-spacing:0px;word-spacing:0px;writing-mode:lr-tb;text-anchor:start;fill:#000000;fill-opacity:1;stroke:none;font-family:Poiret One;-inkscape-font-specification:Poiret One"
       xml:space="preserve"
       id="text3103"
       y="34.831051"
       x="22.291874"><tspan
         id="tspan3105"
         y="34.831051"
         x="22.291874" /></text>
    <text
       sodipodi:linespacing="125%"
       style="font-size:32px;font-style:normal;font-variant:normal;font-weight:normal;font-stretch:normal;text-align:start;line-height:125%;letter-spacing:0px;word-spacing:0px;writing-mode:lr-tb;text-anchor:start;fill:#000000;fill-opacity:1;stroke:none;font-family:Poiret One;-inkscape-font-specification:Poiret One"
       xml:space="preserve"
       id="text4028"
       y="109.1373"
       x="-16.254492"><tspan
         id="tspan4030"
         y="109.1373"
         x="-16.254492" /></text>
    <text
       sodipodi:linespacing="125%"
       style="font-size:14px;font-style:normal;font-variant:normal;font-weight:normal;font-stretch:normal;text-align:start;line-height:125%;letter-spacing:0px;word-spacing:0px;writing-mode:lr-tb;text-anchor:start;fill:#e47904;fill-opacity:1;stroke:none;font-family:Poiret One;-inkscape-font-specification:Poiret One"
       xml:space="preserve"
       id="text3127"
       transform="matrix(0,-1,1,0,0,0)"
       y="17.615484"
       x="-173.50641"><tspan
         id="tspan3133"
         y="17.615484"
         x="-173.50641">colectivo transdisciplinario          |   hacklab</tspan></text>
    <text
       sodipodi:linespacing="125%"
       style="font-size:20px;font-style:normal;font-variant:normal;font-weight:normal;font-stretch:normal;text-align:start;line-height:125%;letter-spacing:0px;word-spacing:0px;writing-mode:lr-tb;text-anchor:start;fill:#29470d;fill-opacity:1;stroke:none;font-family:Poiret One;-inkscape-font-specification:Poiret One"
       xml:space="preserve"
       id="text4466"
       y="-82.669197"
       x="47.640068"><tspan
         id="tspan4468"
         y="-82.669197"
         x="47.640068">foike.com.ar</tspan></text>
    <text
       sodipodi:linespacing="125%"
       style="font-size:28px;font-style:normal;font-variant:normal;font-weight:normal;font-stretch:normal;text-align:start;line-height:125%;letter-spacing:0px;word-spacing:0px;writing-mode:lr-tb;text-anchor:start;fill:#000000;fill-opacity:1;stroke:none;font-family:Poiret One;-inkscape-font-specification:Poiret One"
       xml:space="preserve"
       id="text29626"
       transform="translate(0,-109.84252)"
       y="84.137779"
       x="-7.5027318"><tspan
         id="tspan29628"
         y="84.137779"
         x="-7.5027318" /></text>
    <text
       sodipodi:linespacing="125%"
       style="font-size:14px;font-style:normal;font-variant:normal;font-weight:normal;font-stretch:normal;text-align:start;line-height:125%;letter-spacing:0px;word-spacing:0px;writing-mode:lr-tb;text-anchor:start;fill:#dd7704;fill-opacity:1;stroke:#dd7704;stroke-opacity:1;font-family:Poiret One;-inkscape-font-specification:Poiret One"
       xml:space="preserve"
       id="text29638"
       transform="matrix(0,-1,1,0,0,0)"
       y="18.129343"
       x="27.858042"><tspan
         id="tspan29640"
         y="18.129343"
         x="27.858042">|</tspan></text>
  </g>
  <g
     transform="matrix(0.93553576,0,0,0.93553576,-329.92716,444.16158)"
     style="font-size:316.21759033px;font-style:normal;font-variant:normal;font-weight:normal;font-stretch:normal;text-align:start;line-height:125%;letter-spacing:0px;word-spacing:0px;writing-mode:lr-tb;text-anchor:start;fill:#266404;fill-opacity:1;stroke:none;enable-background:new;font-family:Poiret One;-inkscape-font-specification:Poiret One"
     id="text4815-9" />
  <g
     id="g5426"
     transform="matrix(1.4111111,0,0,1.4111111,-14.999989,-1053.6438)">
    <path
       inkscape:connector-curvature="0"
       style="font-size:48px;font-style:normal;font-variant:normal;font-weight:normal;font-stretch:normal;text-align:start;line-height:125%;letter-spacing:0px;word-spacing:0px;writing-mode:lr-tb;text-anchor:start;fill:#63a020;fill-opacity:1;stroke:none;display:inline;enable-background:new;font-family:Poiret One;-inkscape-font-specification:Poiret One"
       id="path37199"
       d="m 167.75914,848.72992 0,142.44985 -10.12946,0 0,-35.45419 c -5.909,12.02917 -14.77226,21.52582 -26.58984,28.48997 -11.81783,6.96422 -24.47959,10.44632 -37.985462,10.44632 -20.681041,0 -38.407591,-7.28076 -53.17965,-21.84231 -14.772127,-14.77251 -22.15819,-32.39408 -22.15819,-52.86472 0,-20.47044 7.386063,-37.98649 22.15819,-52.54817 14.772059,-14.77244 32.498609,-22.15866 53.17965,-22.15886 13.505872,2e-4 26.378662,3.58782 38.618552,10.76287 12.45066,7.17539 21.10291,16.67204 25.95675,28.48998 l 0,-35.77075 10.12946,0 M 27.845996,920.27139 c 0,17.72716 6.436426,33.13285 19.309278,46.21707 13.083818,12.87331 28.489032,19.30987 46.21565,19.30987 17.937446,0 33.237156,-6.43656 45.899106,-19.30987 12.66168,-13.08422 18.99259,-28.48991 18.99275,-46.21707 -1.6e-4,-17.93799 -6.43658,-33.4492 -19.30929,-46.53361 -12.66196,-13.08415 -27.85608,-19.62629 -45.582566,-19.62642 -17.726618,1.3e-4 -33.131832,6.64778 -46.21565,19.94297 -12.872852,13.08442 -19.309278,28.4901 -19.309278,46.21706" />
    <path
       inkscape:connector-curvature="0"
       style="font-size:48px;font-style:normal;font-variant:normal;font-weight:normal;font-stretch:normal;text-align:start;line-height:125%;letter-spacing:0px;word-spacing:0px;writing-mode:lr-tb;text-anchor:start;fill:#63a020;fill-opacity:1;stroke:none;display:inline;enable-background:new;font-family:Poiret One;-inkscape-font-specification:Poiret One"
       id="path37201"
       d="m 292.42862,868.03978 c -9.28542,-9.28549 -19.52039,-13.92829 -30.70491,-13.92842 -11.18467,1.3e-4 -21.10309,4.22086 -29.75528,12.6622 -8.44125,8.44161 -12.66186,18.25482 -12.66183,29.43964 l 0,94.96657 -10.12945,0 0,-142.44985 10.12945,0 0,21.2092 c 3.79852,-7.17513 9.70736,-13.08416 17.72655,-17.7271 8.01911,-4.64261 16.98788,-6.96401 26.90637,-6.96421 9.91835,2e-4 19.41471,3.37678 28.4891,10.12976 l 0,12.66221" />
    <path
       inkscape:connector-curvature="0"
       style="font-size:48px;font-style:normal;font-variant:normal;font-weight:normal;font-stretch:normal;text-align:start;line-height:125%;letter-spacing:0px;word-spacing:0px;writing-mode:lr-tb;text-anchor:start;fill:#63a020;fill-opacity:1;stroke:none;display:inline;enable-background:new;font-family:Poiret One;-inkscape-font-specification:Poiret One"
       id="path37207"
       d="m 726.37794,985.1652 0,8.86354 c -14.98322,0 -27.75056,-4.95936 -38.30201,-14.87809 -10.55152,-10.1297 -15.82728,-23.00295 -15.82728,-38.61974 l 0,-186.76758 10.12946,0 0,186.76758 c 0,12.87331 4.2206,23.53067 12.66182,31.97208 8.65218,8.44154 19.09818,12.66221 31.33801,12.66221" />
    <path
       inkscape:connector-curvature="0"
       style="font-size:48px;font-style:normal;font-variant:normal;font-weight:normal;font-stretch:normal;text-align:start;line-height:125%;letter-spacing:0px;word-spacing:0px;writing-mode:lr-tb;text-anchor:start;fill:#e19f09;fill-opacity:1;stroke:#cf7103;stroke-width:3.29480362;stroke-miterlimit:3;stroke-opacity:1;stroke-dasharray:none;font-family:Poiret One;-inkscape-font-specification:Poiret One"
       id="path37209"
       d="m 112.36366,787.3182 12.97837,0 -43.999838,36.40385 -13.294911,0 44.316379,-36.40385" />
    <path
       sodipodi:nodetypes="ccccccc"
       style="font-size:48px;font-style:normal;font-variant:normal;font-weight:normal;font-stretch:normal;text-align:start;line-height:125%;letter-spacing:0px;word-spacing:0px;writing-mode:lr-tb;text-anchor:start;fill:#63a020;fill-opacity:1;stroke:none;display:inline;enable-background:new;font-family:Poiret One;-inkscape-font-specification:Poiret One"
       d="m 565.24688,994.12901 c -24.80591,0.0198 -49.61171,0.1075 -74.41746,0.18531 0.68691,-29.35278 -0.76846,-58.7876 1.35624,-88.08446 6.18651,-37.16108 37.71601,-61.36959 81.24647,-61.48181 22.81789,0.13587 45.63311,0.53023 68.44838,0.88174 -0.50342,28.65602 1.04278,57.38248 -0.98001,85.98892 -5.5696,35.31853 -39.34664,64.99493 -75.65041,62.51049"
       id="path37205-6"
       inkscape:connector-curvature="0" />
    <path
       inkscape:connector-curvature="0"
       style="font-size:48px;font-style:normal;font-variant:normal;font-weight:normal;font-stretch:normal;text-align:start;line-height:125%;letter-spacing:0px;word-spacing:0px;writing-mode:lr-tb;text-anchor:start;fill:#63a020;fill-opacity:1;stroke:none;display:inline;enable-background:new;font-family:Poiret One;-inkscape-font-specification:Poiret One"
       id="path37203"
       d="m 319.22618,991.17977 0,-237.41642 10.12946,0 0,129.78764 c 5.69779,-11.60689 14.56105,-20.89251 26.58983,-27.85686 12.2397,-6.96402 24.9015,-10.44612 37.98547,-10.44632 20.89188,2e-4 38.61842,7.38642 53.17963,22.15886 14.77196,14.56168 22.15804,32.07773 22.1582,52.54817 -1.6e-4,20.47064 -7.38624,38.09221 -22.1582,52.86472 -14.56121,14.56155 -32.28775,21.84231 -53.17963,21.84231 -12.66191,0 -25.00717,-3.37659 -37.03584,-10.12976 -12.02877,-6.96415 -21.20859,-16.24977 -27.53946,-27.85686 l 0,34.50452 -10.12946,0 m 9.49637,-70.90838 c -3e-5,17.72716 6.4364,33.13285 19.30928,46.21707 13.08383,12.87331 28.48902,19.30987 46.21566,19.30987 17.93746,0 33.23716,-6.43656 45.8991,-19.30987 12.66167,-13.08422 18.99259,-28.48991 18.99275,-46.21707 -1.6e-4,-17.93799 -6.43659,-33.4492 -19.3093,-46.53361 -12.66194,-13.08415 -27.85613,-19.62629 -45.58255,-19.62642 -17.72664,1.3e-4 -33.13183,6.64778 -46.21566,19.94297 -12.87288,13.08442 -19.30931,28.4901 -19.30928,46.21706" />
    <path
       sodipodi:nodetypes="cccccccccc"
       style="font-size:48px;font-style:normal;font-variant:normal;font-weight:normal;font-stretch:normal;text-align:start;line-height:125%;letter-spacing:0px;word-spacing:0px;writing-mode:lr-tb;text-anchor:start;fill:#266404;fill-opacity:1;stroke:none;display:inline;enable-background:new;font-family:Poiret One;-inkscape-font-specification:Poiret One"
       d="m 570.93498,845.42201 c -33.07262,0 -62.22962,24.65179 -68.92568,57.2916 -1.80799,24.80561 -0.94967,49.73839 -1.2364,74.6032 51.63013,-37.99221 85.42158,-93.66307 138.82487,-129.70026 -44.48365,32.72446 -74.48762,77.96651 -110.26418,119.20146 -5.60297,6.24347 -11.40516,12.31997 -17.43314,18.15674 19.46284,-0.0619 38.8948,-0.10802 58.35776,-0.12351 59.20547,0.17857 68.49036,-49.03506 70.35078,-56.817 2.31841,-25.61854 0.75702,-57.85325 1.29176,-82.26006 -26.68413,0 -50.15116,-0.35217 -70.96577,-0.35217 z"
       id="path37205-0"
       inkscape:connector-curvature="0" />
    <g
       transform="translate(0.00829,908.09308)"
       id="text4815"
       style="font-size:316.21759033px;font-style:normal;font-variant:normal;font-weight:normal;font-stretch:normal;text-align:start;line-height:125%;letter-spacing:0px;word-spacing:0px;writing-mode:lr-tb;text-anchor:start;fill:#63a020;fill-opacity:1;stroke:none;font-family:Poiret One;-inkscape-font-specification:Poiret One">
      <path
         sodipodi:nodetypes="ccsccccssc"
         inkscape:connector-curvature="0"
         id="path4820"
         d="m 565.23193,86.145843 c -20.23799,-3e-6 -55.43961,-0.04922 -74.25346,-0.04922 0,-17.128413 0.25854,-55.183403 0.25855,-75.210569 -10e-6,-20.0270223 7.37839,-37.313567 22.13523,-51.859685 14.75677,-14.756682 32.46494,-22.135085 53.12456,-22.135231 20.87025,1.46e-4 55.02929,0.38234 75.52678,0.38234 0,20.420944 -0.26716,53.6909595 -0.267,73.928794 -1.6e-4,20.027165 -7.16775,37.524521 -21.50279,52.49212 -14.33533,14.967636 -31.72728,22.451445 -52.17591,22.451448 l -2.84596,0" />
    </g>
    <path
       sodipodi:nodetypes="cccscscccsccccssc"
       inkscape:connector-curvature="0"
       d="m 500.76198,976.2949 c 0,0 -0.0159,7.39458 -0.0159,8.27629 0,0 8.54257,0.005 8.54289,0.003 3.46171,-1.78407 14.68081,-13.16187 29.37159,-30.67152 36.72888,-43.77617 47.13345,-71.55399 98.81035,-105.24793 -53.61568,31.79729 -111.32886,112.16767 -134.95669,126.57193 z m 69.42856,8.32243 c -18.93337,0 -51.84127,-0.046 -69.4423,-0.046 0,-15.99304 0.2174,-51.62605 0.21741,-70.36218 -10e-6,-18.73599 6.90275,-34.90817 20.7083,-48.51658 13.80549,-13.80541 30.37211,-20.70817 49.69993,-20.7083 19.52486,1.3e-4 51.48187,0.35769 70.658,0.35769 0,19.10452 -0.24994,50.22981 -0.24979,69.16303 -1.5e-4,18.73613 -6.70568,35.10553 -20.11663,49.10825 -13.41121,14.00276 -29.682,21.00413 -48.81243,21.00413 l -2.66249,0"
       style="fill:#266404;fill-opacity:1;stroke:none"
       id="path4856" />
  </g>
</svg>
